<svg width="566" height="658" viewBox="0 0 566 658" fill="none" xmlns="http://www.w3.org/2000/svg">
<circle opacity="0.75" cx="285.937" cy="305.514" r="270.58" transform="rotate(-180 285.937 305.514)" fill="url(#paint0_linear)"/>
<circle opacity="0.95" cx="285.937" cy="305.514" r="218.658" transform="rotate(-180 285.937 305.514)" fill="url(#paint1_linear)"/>
<path d="M559.439 596.095C557.524 561.87 492.012 545.269 477.453 543.864C462.895 542.459 426.628 534.158 411.175 532.243C395.723 530.327 380.399 518.323 380.399 518.323C354.73 527.007 191.142 528.156 191.142 528.156C191.142 528.156 198.166 532.243 165.474 533.648C132.782 535.052 46.1989 533.137 25.7664 570.809C5.07841 608.354 -3.22232 632.618 27.1711 645.26C57.5645 658.031 163.431 652.54 191.653 645.771C191.653 645.771 202.125 659.946 331.744 648.453C331.744 648.453 335.958 646.665 340.555 642.323C413.219 661.096 444.634 660.074 495.332 653.561C547.69 646.921 561.355 630.191 559.439 596.095Z" fill="#E1CCB4"/>
<path d="M559.439 596.095C559.184 591.498 556.119 587.539 551.777 586.262C539.9 582.558 523.682 578.216 501.589 573.108C427.521 556.124 406.706 568.894 384.358 576.684C362.01 584.346 341.577 609.248 341.577 609.248C341.577 609.248 326.636 631.724 330.594 647.687L330.722 648.198V648.709L339.151 646.665C344.77 645.133 350.644 645.133 356.263 646.41C358.178 646.921 359.966 647.304 361.882 647.687C419.987 660.968 449.869 659.564 495.46 653.817C543.221 647.687 558.801 633.384 559.694 604.906C559.567 601.969 559.567 599.032 559.439 596.095Z" fill="#E1CCB4"/>
<path d="M442.974 560.466C441.441 560.977 440.292 561.871 439.398 563.276C437.866 565.447 435.822 566.851 432.885 566.851C431.353 566.851 429.693 567.49 428.16 567.745C425.351 568.256 422.541 569.022 419.732 569.406C412.963 570.427 406.195 571.193 399.555 572.47C394.063 573.492 389.338 576.557 384.613 579.494C382.953 580.516 381.165 581.537 379.505 582.559C373.375 586.135 368.012 590.732 363.031 595.84C361.371 597.628 356.774 601.076 354.986 602.608C353.837 603.502 352.687 604.396 350.772 604.269C350.516 603.63 350.133 602.992 349.878 602.225C348.601 598.266 349.623 592.52 347.707 588.689C346.941 587.284 346.558 585.624 345.919 584.219C344.514 580.771 342.727 577.451 340.3 574.514C337.108 570.427 333.915 566.341 330.85 562.254C329.318 560.211 327.402 558.678 325.359 557.146C323.699 555.997 322.039 554.847 320.123 553.57C320.506 553.059 320.762 552.804 321.017 552.421C322.166 551.144 323.443 549.867 324.465 548.334C325.742 546.547 327.274 545.78 329.318 545.78C333.404 545.78 337.491 545.908 341.45 546.036C345.025 546.163 348.473 546.419 352.049 546.547C357.412 546.802 362.648 547.057 368.012 547.057C374.908 547.057 381.548 545.653 387.678 542.46C391.126 540.672 394.83 539.267 397.767 536.586C399.682 534.926 401.726 533.521 403.769 531.988C406.706 529.307 409.643 527.136 409.643 527.136C412.197 525.731 414.751 524.198 417.433 523.049C422.286 521.006 427.522 520.878 432.63 521.261C435.439 521.389 438.376 521.9 441.186 522.155C446.805 522.666 452.424 522.921 457.915 522.028C460.852 521.517 463.662 522.411 466.088 524.071C466.216 524.071 474.772 548.079 442.974 560.466Z" fill="#F8A383"/>
<path d="M451.53 547.95C453.19 547.184 454.978 546.673 456.638 546.035C457.915 545.524 459.065 545.013 460.469 544.502C461.236 544.119 462.129 544.885 462.002 545.652C460.469 553.442 442.974 560.465 442.974 560.465C441.442 560.976 440.292 561.87 439.398 563.275C437.866 565.446 435.823 566.85 432.885 566.85C431.353 566.85 429.693 567.489 428.16 567.744C425.351 568.255 422.541 569.021 419.732 569.404C412.964 570.426 406.195 571.192 399.555 572.469C394.064 573.491 389.339 576.556 384.613 579.493C382.953 580.515 381.165 581.536 379.505 582.558C373.376 586.134 368.012 590.731 363.032 595.839C361.371 597.627 356.774 601.075 354.986 602.607C353.837 603.501 352.688 604.395 350.772 604.268C350.517 603.629 350.134 602.99 349.878 602.224C348.601 598.265 349.495 592.774 347.835 589.071C347.324 588.049 346.941 587.155 346.558 586.134C345.792 583.963 344.898 581.919 343.876 580.004C355.242 580.259 366.096 573.619 375.547 568C385.763 561.87 395.341 555.868 407.472 554.335C419.093 552.931 431.098 553.697 442.591 551.015C444.123 550.632 445.656 550.249 447.188 549.738L451.53 547.95Z" fill="#E27554"/>
<path d="M311.567 552.165C311.567 552.165 307.48 556.252 295.859 557.401C284.366 558.55 266.36 560.849 257.676 559.827C249.12 558.806 200.976 555.868 179.266 559.061C179.266 559.061 161.388 552.676 124.226 561.615C124.226 561.615 63.3113 557.401 28.8314 569.916C26.405 570.81 24.3618 572.598 23.0847 574.896C4.31232 610.142 -2.32825 633.001 26.9158 645.261C57.3093 658.031 163.175 652.54 191.398 645.772C191.398 645.772 200.976 658.67 315.143 649.73C320.378 649.347 325.742 648.837 331.361 648.326C331.361 648.326 335.575 646.538 340.172 642.196C340.428 642.196 340.555 642.324 340.811 642.324C345.025 637.088 349.112 629.298 351.283 617.677C357.412 586.773 327.913 543.098 311.567 552.165Z" fill="#F3DFC6"/>
<path d="M552.415 569.278C552.415 570.938 552.415 572.726 552.415 574.386C552.543 576.046 552.798 577.578 552.798 579.238C552.798 580.899 553.565 582.559 553.054 584.091C553.565 585.624 553.437 586.645 553.437 586.645C553.692 588.944 553.948 591.37 553.437 593.797C553.054 595.457 552.926 597.117 552.798 598.777C552.543 600.693 552.288 602.48 552.032 604.396C550.244 612.952 545.136 615.378 545.136 615.378C544.242 615.762 543.221 616.017 542.454 615.378C541.561 614.612 541.05 613.718 541.305 612.441C542.199 608.483 543.093 604.524 544.115 600.565C544.498 599.032 544.625 597.628 544.242 595.968C543.476 592.647 542.965 589.199 542.327 585.751C542.199 584.857 542.454 583.963 542.582 583.07C542.71 582.559 542.838 581.92 542.965 581.409C544.37 577.451 540.283 572.215 539.262 568.256L552.415 569.278ZM540.667 572.342C541.05 573.492 541.05 574.769 541.177 576.046C541.177 576.046 540.794 609.121 528.79 603.757C527.385 603.247 527.641 602.225 527.641 601.331C527.769 599.671 527.896 597.883 528.535 596.351C529.684 593.158 529.94 589.838 530.833 586.645C531.344 584.602 531.727 582.431 532.494 580.515C533.388 578.089 532.877 575.79 532.11 573.364C531.344 571.193 530.833 569.022 529.94 566.851C529.046 564.553 528.152 562.126 527.13 559.955C526.747 559.061 525.853 558.295 525.087 557.657C522.405 555.613 519.979 553.315 516.786 552.165C515.381 551.654 514.998 551.271 514.232 549.739C513.977 547.823 512.7 546.291 511.55 544.631C510.529 545.397 510.912 546.419 511.167 547.057C512.189 549.484 512.061 551.91 512.316 554.464C512.572 556.635 513.083 558.806 513.721 560.849C514.615 563.531 515.764 566.213 516.786 568.894C517.041 569.661 517.425 570.427 517.808 571.193C518.574 572.47 518.829 573.236 518.702 574.769C518.702 575.407 518.319 575.918 517.808 576.046C516.275 576.557 513.466 577.451 512.061 576.812C508.868 575.535 507.847 571.193 507.464 570.427C506.187 567.49 504.782 564.553 503.505 561.488C502.483 558.934 500.823 556.635 498.78 554.975C496.481 553.187 494.949 550.888 493.416 548.59C490.096 543.609 488.053 538.118 486.52 532.371C485.626 528.923 484.733 525.348 483.328 522.027C481.923 518.962 480.518 515.897 477.709 513.727C477.198 513.343 476.687 512.833 476.304 512.322C472.728 507.597 468.259 503.638 464.045 499.424C458.298 493.549 452.296 488.058 446.932 481.928C443.229 477.714 439.142 473.883 435.311 469.797C432.119 466.476 428.926 463.284 425.734 460.091C423.946 458.303 421.264 455.238 419.731 453.195C415.773 448.215 411.942 443.234 408.11 438.126C405.173 434.295 401.981 430.592 399.171 426.633C396.362 422.674 394.191 418.46 393.297 413.607C393.041 411.947 392.275 410.287 391.764 408.499C390.998 405.945 390.232 403.391 389.721 400.837C389.083 397.772 388.572 394.579 387.933 391.514C387.167 387.428 386.529 383.341 385.762 379.255C385.251 375.935 384.741 367.634 384.23 364.313C383.974 362.909 384.868 362.27 385.89 361.759C387.933 360.738 390.104 359.588 392.275 358.695C399.171 355.63 406.195 353.203 413.729 352.309C415.134 352.182 416.539 352.182 417.816 352.182C421.008 352.182 424.201 352.182 427.394 352.309C429.181 352.437 430.842 352.82 432.629 353.203C433.14 353.331 433.651 353.969 433.907 354.48C434.162 355.119 434.162 355.885 434.29 356.651C435.567 363.036 436.716 374.657 437.993 381.043C437.993 381.17 438.121 381.298 438.121 381.426C438.121 381.426 441.824 390.365 445.783 410.159C447.443 412.841 449.486 415.267 451.274 417.949C453.573 421.269 455.871 424.462 457.915 427.91C462.001 434.55 465.705 441.446 469.791 448.215C472.218 452.429 475.027 456.388 477.453 460.602C481.029 466.732 484.477 472.861 488.053 478.991C491.501 484.738 494.949 490.484 498.524 496.231C503.122 503.51 507.719 510.789 512.444 518.068C516.275 523.943 521 529.179 527.13 532.882C529.812 534.542 532.366 536.458 535.175 537.99C537.219 539.14 539.39 540.033 541.561 540.927C543.859 541.821 545.647 542.971 547.052 545.142C549.095 548.334 551.394 551.271 553.565 554.336C554.459 555.613 555.352 557.018 555.863 558.55C556.374 559.955 557.268 561.105 558.034 562.382C559.439 564.68 560.716 566.979 561.355 569.533C562.504 573.875 564.164 578.217 564.292 582.942C564.292 584.602 564.803 586.262 565.058 587.922C565.058 587.922 567.357 595.84 564.292 604.141C563.781 605.545 561.355 605.034 561.099 603.885C560.844 602.864 560.844 599.288 560.844 599.288C561.355 595.329 561.61 586.007 561.099 583.58C560.588 581.026 560.461 579.238 560.461 579.238C560.716 581.154 560.716 583.07 561.099 584.857C561.738 587.539 562.248 590.221 561.865 592.903C561.482 595.457 561.227 598.011 560.844 600.309C560.844 600.309 560.461 603.502 559.567 606.822C559.311 607.716 559.184 608.738 558.928 609.632C558.673 610.781 557.779 611.292 556.63 611.164C549.478 612.186 553.309 602.097 553.309 602.608C553.692 600.182 553.82 597.755 554.459 595.457C554.969 593.541 555.352 591.626 555.097 589.582C555.097 589.582 552.543 573.747 551.649 571.959" fill="#F8A383"/>
<path d="M512.827 570.299C511.167 565.446 507.463 561.615 505.037 557.145C502.355 552.165 500.568 546.929 499.801 541.31C499.035 535.308 499.418 529.178 500.057 523.176C499.674 520.877 499.035 518.706 497.63 516.791C492.011 509.001 482.306 503.765 475.154 497.252C459.83 483.077 446.294 467.242 431.608 452.556C419.22 440.169 406.322 427.526 400.448 410.542C395.723 396.494 395.468 380.404 404.024 367.633C406.705 363.547 410.026 354.991 413.729 352.309C413.601 352.309 413.601 352.309 413.474 352.309C405.939 353.075 398.916 355.501 392.147 358.694C389.976 359.716 387.933 360.737 385.762 361.759C384.74 362.27 383.847 362.908 384.102 364.313C384.613 367.633 385.124 375.934 385.634 379.254C386.273 383.341 387.039 387.427 387.805 391.514C388.316 394.579 388.827 397.771 389.593 400.836C390.104 403.39 390.998 405.944 391.636 408.498C392.147 410.159 392.913 411.819 393.169 413.607C393.935 418.459 396.234 422.673 399.043 426.632C401.853 430.591 405.045 434.294 407.983 438.126C411.686 442.978 415.517 447.831 419.22 452.684C420.625 454.472 422.03 456.387 423.562 458.047C427.393 462.006 431.225 465.965 435.183 469.924C439.142 473.883 443.101 477.841 446.804 482.056C452.296 488.185 458.17 493.804 463.917 499.551C468.003 503.765 472.473 507.724 476.048 512.449C476.432 513.087 477.07 513.598 477.581 513.981C480.263 516.152 481.795 519.217 483.072 522.154C484.477 525.475 485.371 529.05 486.265 532.498C487.797 538.245 489.713 543.864 493.161 548.717C494.693 551.015 496.226 553.314 498.524 555.102C500.695 556.762 502.228 559.061 503.249 561.615C504.526 564.552 505.931 568.766 507.208 571.831C507.719 572.98 508.485 574.257 510.018 575.662C511.55 577.067 512.699 577.45 515.637 576.684C515.381 576.045 513.21 571.193 512.827 570.299Z" fill="#E27554"/>
<path d="M11.5912 610.653C8.14319 609.376 4.43979 608.355 4.18438 604.907C3.80127 598.649 2.26883 592.647 0.73639 586.773C0.0978728 584.346 -0.157534 581.92 0.0978728 579.366C0.225576 578.089 2.77965 575.663 3.80127 574.385C3.92898 574.769 4.18438 574.896 4.18438 575.152C4.31209 577.45 4.43979 579.749 4.6952 581.92C5.07831 584.729 5.46142 587.539 5.97223 590.476C6.73845 594.563 7.50467 598.521 8.14319 602.608C8.5263 605.417 9.16482 607.972 11.0804 610.015C11.3358 610.142 11.3358 610.398 11.5912 610.653Z" fill="#E27554"/>
<path d="M10.6976 562.764C7.88815 563.786 2.90771 570.427 2.90771 573.236C2.90771 575.535 2.90771 577.961 3.29082 580.26C4.05704 585.623 4.95097 591.115 5.84489 596.478C6.48341 600.182 7.24963 603.885 8.01585 607.588C8.39896 609.504 9.5483 610.909 11.0807 612.058C11.0807 612.058 16.572 614.995 16.6997 612.569C16.6997 611.547 15.295 609.121 14.9118 605.034C14.2733 598.904 14.2733 590.221 12.8686 587.028C10.5699 581.281 10.6976 562.764 10.6976 562.764Z" fill="#E27554"/>
<path d="M80.5515 523.943C80.5515 523.943 78.1252 526.752 76.465 528.54C74.8049 530.072 74.8049 532.116 74.4218 534.159C74.0387 536.33 73.1447 538.501 72.2508 540.672C71.3569 543.098 69.1859 544.375 67.015 545.652C63.4393 547.823 59.8636 549.866 56.2879 551.91C53.9892 553.187 52.7122 554.975 52.5845 557.784C52.2014 563.275 51.3074 568.639 49.5196 573.875C49.0088 575.535 48.1149 577.067 46.4547 578.472C38.7925 583.452 41.3466 571.704 41.3466 571.704C41.8574 567.234 41.602 562.892 40.4527 558.55C40.0695 557.401 40.3249 555.869 40.5804 554.591C41.0912 551.527 39.3033 547.951 39.8141 544.886C40.0695 543.609 42.7513 542.715 42.879 541.183C41.3466 541.31 40.8358 542.077 40.7081 543.226C40.4527 544.758 40.1972 546.291 39.9418 547.823C39.5587 549.866 38.5371 551.143 36.4938 552.037C33.9398 553.187 31.7688 554.975 30.2364 557.401C29.2148 558.933 28.1931 560.338 27.0438 561.743C27.0438 561.743 21.1694 581.665 21.1694 582.814C20.914 583.708 20.5309 584.346 20.2755 585.24C19.7647 587.028 20.4032 588.816 20.6586 590.476C21.2971 593.541 22.4465 596.606 22.7019 599.671C22.9573 602.225 22.3188 604.907 22.0634 607.588C19.8924 616.145 14.018 599.926 14.018 599.926C13.1241 597.628 11.8471 595.584 11.0809 593.286C10.3146 589.071 9.93153 585.113 9.93153 585.113C9.80383 583.069 9.29301 580.898 9.42071 578.855C9.93153 572.342 9.42072 565.829 9.67612 559.444C9.67612 557.656 9.80383 555.741 9.93153 553.698C10.3146 552.293 11.0809 551.271 11.0809 551.271C11.7194 549.483 12.8687 548.079 14.2734 546.929C16.9552 544.631 19.637 542.46 22.4465 540.416C26.533 537.352 30.6195 534.414 34.8337 531.477C35.8553 530.711 37.1324 530.072 38.154 529.434C39.9418 528.157 41.7297 526.752 43.6452 525.73C46.5824 524.326 47.8594 521.516 49.775 519.345C51.6906 517.174 53.6061 514.876 55.394 512.449C59.0974 507.214 62.1622 501.595 65.0994 495.848C66.5042 493.038 68.292 490.357 69.8244 487.675C71.2292 485.121 72.5062 482.567 73.911 480.14C75.4434 477.586 77.2312 475.288 78.7637 472.734C80.1684 470.435 81.3178 467.881 82.5948 465.582C84.3826 462.517 86.2982 459.325 88.2137 456.388C91.534 451.279 94.8543 446.171 98.43 441.191C101.112 437.487 103.41 433.529 105.837 429.698C108.391 425.739 111.2 422.163 113.882 418.332C115.542 416.033 117.075 413.479 118.735 411.181C121.289 407.733 123.204 403.901 124.992 400.07C126.014 397.899 127.419 395.856 128.823 393.941C128.823 393.941 133.038 383.852 135.081 378.616C135.592 369.421 140.317 353.969 141.721 344.902C141.977 342.731 142.743 342.221 144.786 342.348C148.49 342.476 152.321 342.604 156.024 342.731C157.429 342.731 158.834 342.987 160.238 343.115C164.197 343.498 168.156 344.008 172.115 344.392C176.84 344.902 181.437 345.924 185.907 347.584C187.312 348.095 188.716 348.861 190.121 349.627C191.398 350.394 191.526 350.777 191.143 352.182C189.866 356.907 186.035 368.017 184.885 372.742C183.353 379.51 181.82 386.278 180.416 393.047C179.649 396.622 179.266 400.198 178.372 403.646C177.223 407.477 176.074 411.18 175.18 415.139C174.541 418.332 173.52 421.524 171.859 424.462C170.582 426.888 169.816 429.442 168.156 431.741C166.496 433.912 165.091 436.338 163.431 438.637C161.516 441.446 159.472 444.128 157.429 446.81C156.152 448.47 154.62 450.002 153.087 451.535C149.256 455.366 145.297 459.197 141.466 463.028C137.635 466.859 133.804 470.563 130.1 474.521C125.503 479.374 121.034 484.227 116.564 489.08C112.861 492.911 109.157 496.614 105.326 500.445C102.389 503.382 99.5793 506.32 96.6422 509.257C92.8111 513.088 88.8523 516.791 85.0212 520.495C83.9995 521.516 82.9779 522.666 82.084 523.687C81.8286 523.56 81.5732 524.326 80.5515 523.943Z" fill="#F8A383"/>
<path d="M306.331 172.885C310.162 170.331 311.439 166.628 314.121 162.924C314.759 162.158 315.526 161.52 316.547 160.37C316.93 162.669 317.313 168.926 317.569 170.714C318.207 177.227 320.889 182.846 325.231 187.699C327.913 190.636 329.317 193.956 329.062 198.17C328.807 203.023 328.04 207.876 326.891 212.601C326.763 213.367 326.508 214.006 326.508 214.772C326.508 215.921 327.402 216.304 328.296 215.666C328.807 215.41 329.19 215.027 329.828 214.517C330.722 215.666 329.828 221.668 329.573 222.817C327.913 222.051 326.508 222.562 325.103 223.073C321.272 224.605 317.313 225.882 313.482 227.287C312.333 227.67 311.184 227.925 310.162 228.436C306.714 230.096 303.011 230.607 299.179 230.607C299.179 230.607 205.701 227.542 235.072 204.045C237.243 202.257 239.159 200.597 241.074 198.809C244.65 195.361 247.204 191.275 248.609 186.549C249.503 183.612 250.652 180.931 251.546 177.993C252.568 174.801 253.206 171.48 253.334 168.032C253.462 164.201 254.1 160.37 254.611 156.667C254.739 156.028 256.782 151.303 257.165 150.537C257.676 151.048 257.931 151.176 258.187 151.431C259.591 153.857 261.124 156.156 262.529 158.71C264.572 162.414 267.381 165.606 269.935 168.926C271.851 171.353 274.277 173.141 277.214 174.162C279.513 175.056 282.067 175.567 284.494 175.95C287.303 176.461 290.24 176.716 293.05 176.844C301.223 176.205 306.331 172.885 306.331 172.885Z" fill="#E27554"/>
<path d="M330.687 213.913C330.176 214.296 329.665 214.679 329.155 215.062C328.133 215.701 327.367 215.19 327.367 214.168C327.367 213.402 327.622 212.764 327.75 211.997C328.899 207.272 329.665 202.547 329.921 197.567C330.176 193.353 328.771 190.032 326.09 187.095C321.62 182.242 318.207 177.355 317.696 170.842C317.569 169.054 317.569 161.775 317.185 159.349C316.036 160.498 314.376 162.286 313.737 163.18C313.227 163.946 312.588 164.712 312.077 165.351C320.378 182.08 319.612 209.791 316.419 227.287C318.973 226.393 321.655 225.499 324.209 224.477C325.614 223.967 326.891 223.456 328.679 224.222C328.551 223.073 331.581 215.062 330.687 213.913Z" fill="#E27554"/>
<path d="M335.703 238.908C335.448 239.674 335.192 239.929 335.192 240.313C335.064 240.823 334.809 241.59 335.064 241.845C335.448 242.228 336.341 242.739 336.725 242.484C339.662 241.207 342.854 240.696 345.153 238.269C345.664 237.759 346.43 237.375 347.069 237.375C347.962 237.375 348.601 236.992 349.112 236.354C352.177 232.65 354.22 228.692 354.475 223.711C354.603 221.796 354.986 219.88 355.369 217.326C355.88 218.092 356.135 218.475 356.391 218.858C357.285 219.88 358.306 219.752 358.562 218.348C358.945 216.687 359.073 214.9 359.2 213.112C359.328 211.835 359.2 210.558 359.2 209.025C359.839 209.153 360.222 209.153 360.477 209.281C364.819 211.196 369.544 211.835 374.269 212.473C379.122 213.112 384.103 214.006 388.7 215.666C394.063 217.709 399.172 220.391 404.152 223.456C406.578 224.988 407.983 227.415 409.005 229.969C439.781 278.879 442.846 356.65 442.846 356.65C442.335 356.523 441.824 356.523 441.314 356.395C437.099 355.757 432.885 354.607 428.671 354.479C422.158 354.096 415.518 353.586 409.005 354.863C404.28 355.757 399.938 357.672 395.596 359.332C394.063 359.971 392.403 360.482 390.871 361.248C372.609 369.932 399.682 342.986 382.059 367.122C382.059 367.122 376.313 388.193 368.14 398.665C368.65 401.602 368.778 404.412 368.395 407.349C368.523 415.522 368.523 426.249 368.523 426.249C368.65 427.143 369.034 428.037 368.906 428.931C368.395 432.123 368.778 435.188 370.311 437.998C371.715 440.552 372.098 443.361 372.992 446.171C375.291 455.493 375.546 463.027 375.546 463.027C376.313 465.837 376.951 468.646 377.845 471.328C378.867 474.521 378.867 477.713 378.739 481.034C378.611 483.971 378.484 486.908 378.356 489.845C378.228 492.399 378.484 494.953 379.378 497.507C380.782 501.466 381.293 505.68 381.804 509.895C382.059 512.193 382.442 514.364 382.826 516.918C382.698 517.046 382.187 517.174 381.804 517.557C379.122 520.239 374.908 519.6 372.482 522.665C369.161 526.624 364.181 526.241 359.967 527.007C352.688 528.284 345.281 529.816 337.874 530.838C332.383 531.604 326.764 532.115 321.272 532.626C319.101 532.881 316.803 532.881 314.632 533.009C307.736 533.264 300.712 533.52 293.816 533.647C290.496 533.775 287.176 533.647 283.855 533.52C277.47 533.264 270.957 533.009 264.572 532.881C261.89 532.753 259.081 532.626 256.399 532.626C249.375 532.37 242.224 531.732 235.2 532.115C230.603 532.37 225.878 532.115 221.281 532.115C220.898 532.115 220.514 532.115 220.131 532.115C213.874 532.881 207.744 531.604 201.614 530.455C198.805 529.944 195.995 529.816 193.314 529.433C191.781 529.178 190.249 528.539 188.716 527.901C188.461 527.773 188.078 527.262 188.078 526.879C187.95 525.985 187.95 524.964 188.205 524.07C189.227 518.451 190.249 512.704 191.398 507.085C192.164 502.999 193.058 499.04 193.952 494.953C194.208 494.059 194.591 493.293 195.357 492.527C197.4 489.462 197.911 489.334 197.911 489.334C198.294 486.014 198.166 482.694 198.422 479.373C198.549 477.969 198.677 476.436 198.933 475.032C199.06 473.882 199.316 472.733 199.316 471.456C199.443 467.625 199.443 463.794 199.699 459.963C199.954 457.281 200.593 454.727 201.231 452.173C202.125 448.725 203.274 445.404 204.296 441.956C204.552 441.062 205.062 440.296 205.701 439.402C205.701 439.402 205.19 410.924 206.85 397.771C204.296 393.429 203.402 388.704 202.891 383.851C202.125 376.317 200.976 368.782 199.06 361.375C197.145 356.523 195.74 355.501 195.74 355.501C194.974 355.373 194.463 355.373 193.952 355.118C191.781 354.096 189.738 352.947 187.567 351.925C185.651 351.031 183.608 350.265 181.565 349.754C176.074 348.35 170.582 346.945 164.836 347.073C162.409 347.073 159.855 346.434 157.429 346.179C155.258 345.923 153.215 345.796 151.044 345.668C149.128 345.54 147.085 345.668 145.042 345.413C142.105 345.157 139.167 345.54 136.23 346.179C135.464 346.306 134.825 346.434 134.059 346.562C134.059 259.851 155.769 236.226 155.769 236.226C159.855 231.756 164.07 227.287 169.433 224.094C169.816 223.839 170.199 223.711 170.71 223.583C175.691 218.986 185.524 214.261 185.524 214.261C191.653 211.579 199.571 209.919 202.636 210.685C205.829 210.047 209.021 208.514 209.021 208.514C209.915 208.004 210.809 207.493 211.831 207.11C216.556 204.173 223.579 204.939 228.687 206.088C232.008 206.854 235.073 208.642 237.499 210.941C238.521 211.835 239.542 212.729 240.564 213.623C242.479 215.283 244.523 216.943 246.694 218.348C248.098 219.369 249.759 220.008 251.419 220.646C253.717 221.54 256.016 222.306 258.315 223.073C262.529 224.605 266.743 225.627 271.085 226.521C275.81 227.542 280.407 227.798 285.132 227.925C289.857 228.053 294.582 227.925 299.307 227.925C303.266 227.925 307.097 227.415 310.801 225.882C316.037 223.583 321.656 222.051 327.019 219.88C327.785 219.625 328.552 219.114 329.445 218.731C329.445 219.242 329.573 219.625 329.445 220.008C327.913 224.733 325.87 229.202 323.06 233.289C322.805 233.672 322.549 234.566 322.677 234.821C323.06 235.204 323.827 235.588 324.337 235.46C325.359 235.204 326.381 234.694 327.402 234.183C328.296 233.8 329.062 233.544 330.339 233.034C330.084 233.927 329.956 234.311 329.829 234.566C328.041 237.759 326.253 240.823 324.465 244.016C324.21 244.399 324.21 245.293 324.465 245.548C324.72 245.804 325.487 245.804 325.997 245.676C327.019 245.421 327.658 242.867 328.424 242.739" fill="#F3DFC6"/>
<path d="M171.476 414.373C163.814 431.358 152.32 445.533 138.912 458.303C125.503 471.074 110.817 482.311 97.5356 495.082C90.7673 501.595 84.893 508.108 81.445 516.919C81.7004 519.345 80.4233 521.516 80.4233 523.943C81.445 524.326 81.7004 523.56 82.0835 523.049C83.1051 521.9 83.999 520.878 85.0207 519.856C88.8518 516.153 92.8106 512.45 96.6417 508.618C99.5789 505.681 102.388 502.744 105.326 499.807C109.029 495.976 112.86 492.272 116.563 488.441C121.161 483.589 125.63 478.736 130.1 473.883C133.803 469.924 137.634 466.221 141.466 462.39C145.297 458.559 149.256 454.728 153.087 450.896C154.619 449.364 156.024 447.832 157.429 446.171C159.472 443.49 161.515 440.808 163.431 437.998C165.091 435.7 166.495 433.273 168.156 431.102C169.816 428.931 170.582 426.25 171.859 423.823C173.391 420.886 174.541 417.694 175.179 414.501C175.946 410.542 177.223 406.839 178.372 403.008C179.394 399.56 179.777 395.856 180.415 392.408C181.054 389.471 181.692 386.406 182.331 383.469C179.649 393.941 176.073 404.285 171.476 414.373Z" fill="#E27554"/>
<path d="M21.4244 582.559C21.4244 582.686 21.4244 582.686 21.2967 582.814C21.0413 583.58 20.6582 584.219 20.4028 584.985C19.892 586.773 20.5305 588.561 20.7859 590.221C21.4244 593.286 22.4461 596.351 22.8292 599.416C15.6778 585.368 10.8251 570.044 19.1258 556.379C23.5954 548.973 31.513 545.525 38.409 540.672C41.4739 538.501 44.2834 536.202 46.582 533.521C46.9651 533.904 47.3482 534.159 47.8591 534.414C46.0712 537.096 44.2834 539.778 42.7509 542.587C42.7509 542.587 40.7077 545.269 39.9414 547.568C39.3029 549.483 38.5367 550.888 36.4935 551.782C33.9394 552.931 31.7684 554.719 30.236 557.146C29.2144 558.678 28.1927 560.083 27.0434 561.488C27.0434 561.488 23.8508 572.47 21.0413 582.686" fill="#E27554"/>
<path d="M60.5014 542.97C61.6508 539.777 62.6724 536.457 63.5663 533.137C59.7352 539.266 55.1379 545.141 52.5838 551.909C50.6683 557.017 50.9237 562.508 50.4129 567.872C50.0298 570.809 49.5189 573.619 48.4973 576.3C49.0081 575.534 49.3912 574.64 49.6466 573.746C51.4345 568.511 52.2007 563.147 52.7115 557.656C52.9669 554.974 54.1163 553.058 56.4149 551.781C58.2028 550.76 59.9906 549.738 61.6508 548.717C60.246 547.567 59.6075 545.524 60.5014 542.97Z" fill="#E27554"/>
<path d="M511.55 544.63C512.444 548.461 515.764 549.738 517.68 552.931C517.68 552.931 522.277 560.848 528.662 568.127C530.195 569.788 533.26 577.961 532.493 580.515C531.855 582.558 531.344 584.601 530.833 586.644C530.067 589.837 529.812 593.157 528.535 596.35C527.896 597.882 527.768 599.67 527.641 601.33C527.513 602.097 527.385 602.991 528.407 603.629C528.535 603.246 528.662 602.99 528.918 602.607C529.429 600.181 530.195 598.01 531.983 596.35C534.537 590.859 536.963 585.112 537.474 579.238L537.602 577.578C537.602 577.067 537.602 576.684 537.602 576.173C536.963 575.79 536.325 575.407 535.941 575.023C535.431 574.385 536.197 573.491 537.091 573.491C537.218 573.491 537.218 573.491 537.346 573.491C536.325 567.872 532.493 563.147 528.79 558.805C525.342 554.719 520.617 550.249 516.914 545.396C516.914 545.396 513.338 543.098 511.55 544.63Z" fill="#E27554"/>
<path d="M248.296 61.7837C247.402 58.5911 249.225 56.3274 252.092 54.2841C252.347 53.7733 253.369 53.6456 254.008 53.6456C255.285 53.6456 256.051 53.3902 256.689 52.2408C257.328 50.9638 258.733 50.453 260.265 50.7084C261.287 50.9638 262.308 51.2192 263.841 51.73C263.202 50.5807 262.691 49.8145 262.436 48.9205C262.181 48.1543 262.181 46.5291 262.053 45.3798C264.99 44.7413 267.672 44.2304 270.354 43.5919C271.375 43.3365 273.256 43.557 274.022 42.9185C275.555 41.5138 277.342 41.0029 279.258 40.6198C280.663 40.3644 281.94 39.9813 283.344 40.6198C283.728 40.7475 284.494 40.109 285.005 39.8536C285.515 39.5982 286.026 39.2151 286.537 39.2151C288.836 39.3428 291.262 39.4705 293.561 39.7259C294.838 39.8536 295.987 40.4921 297.136 41.1306C298.03 40.8752 298.924 40.6198 300.074 41.0029C301.606 41.5138 303.394 41.7692 305.054 40.8752C306.842 39.9813 307.48 40.2367 307.864 42.1523C308.502 46.2388 311.312 49.7796 313.738 52.7167C314.121 53.2275 315.015 53.6107 315.653 53.7384C317.186 53.9938 318.08 54.8877 318.846 56.1647C319.229 56.8032 319.357 57.4418 319.868 57.8249C320.634 58.3357 321.655 58.7188 322.933 59.2296C322.933 59.2296 323.316 59.7404 323.571 60.2512C324.082 61.9114 324.976 63.1884 326.891 63.3161C327.274 63.3161 327.913 63.9546 328.041 64.4654C328.551 65.9979 329.318 67.0195 330.978 67.5303C332.127 67.7857 332.766 68.8074 333.021 69.9567C333.277 71.106 333.915 71.8722 334.681 72.7662C335.447 73.7878 336.214 74.9371 336.469 76.2142C337.363 79.9176 338.512 83.621 338.257 87.5798C338.002 90.3893 337.874 93.3264 337.618 96.1359C337.618 96.9021 337.363 97.6683 337.491 98.3069C337.874 101.627 338.512 104.82 338.895 108.14C339.023 109.545 339.151 111.077 339.023 112.61C338.512 116.441 337.874 120.4 337.363 124.231C337.108 125.508 336.852 126.785 336.469 128.062C335.32 131.637 334.426 135.341 333.021 138.789C331.999 141.343 330.595 143.897 328.935 146.068C326.253 150.027 323.316 153.858 320.378 157.561C318.718 159.732 316.675 161.775 314.887 163.819C314.249 164.585 313.61 165.223 313.099 165.99C310.801 169.31 307.864 171.992 304.926 174.674C303.905 175.567 302.628 176.206 301.478 176.589C297.392 177.738 293.305 179.015 288.963 178.122C286.409 177.611 283.855 177.611 281.301 177.228C276.832 176.461 272.873 174.546 270.063 170.715C268.914 169.182 267.509 167.778 266.36 166.245C264.7 163.946 263.04 161.648 261.635 159.349C259.975 156.923 258.094 154.845 256.179 152.546C253.241 149.098 251.07 145.139 248.644 141.436C246.473 138.115 246.055 133.681 244.778 129.977C244.139 128.062 244.14 125.891 243.756 123.848C243.246 120.91 241.144 118.101 240.634 115.164C240.378 113.504 240.378 111.843 240.251 110.056C240.251 109.928 240.251 109.928 240.251 109.8C241.528 107.629 240.889 105.075 241.4 102.649C241.783 101.372 241.655 99.8393 241.528 98.4346C241.144 94.7312 240.506 91.1555 241.017 87.4521C241.017 87.069 239.426 86.5581 239.299 86.175C238.405 82.9824 240.251 79.9176 240.889 76.725C241.017 76.3419 241.017 75.8311 241.4 75.5757C243.06 74.0432 243.188 72 243.699 69.9567C243.826 69.3182 244.209 68.552 244.72 68.1688C245.614 67.5303 245.742 66.7641 245.614 65.8702C245.614 65.4871 245.614 65.104 245.614 64.7209C245.359 62.5499 245.614 62.2945 248.296 61.7837ZM291.645 152.198C291.134 151.815 290.879 151.815 290.624 151.559C289.474 150.41 288.325 150.282 286.792 151.176C286.154 151.559 285.26 151.559 284.494 151.687C281.812 151.942 279.13 152.325 276.448 152.581C276.321 152.581 276.321 152.836 276.065 152.964C276.448 153.219 276.704 153.475 277.087 153.602C281.557 155.263 286.282 155.901 291.007 156.54C293.561 156.923 295.987 156.54 298.413 155.646C299.818 155.135 301.223 154.88 302.628 154.624C303.394 154.496 304.032 154.496 304.16 153.092C302.245 153.219 300.457 153.347 298.413 153.602C298.541 151.432 296.626 152.198 295.476 151.815C294.199 151.304 292.795 150.793 291.645 152.198ZM273 98.0515C273.894 96.1359 273.767 95.4974 272.234 94.6035C270.957 93.8372 269.552 92.9433 268.275 92.3048C266.743 91.5386 265.083 90.6447 263.423 90.2616C260.358 89.4953 257.165 89.1122 254.1 88.6014C253.59 88.4737 252.951 88.7291 252.44 88.9845C251.546 89.623 250.908 90.3893 250.142 91.0278C249.631 91.5386 249.248 92.1771 249.758 93.1987C251.291 93.4541 252.44 92.5602 253.717 91.9217C254.483 92.0494 255.122 92.5602 255.633 92.4325C257.165 92.0494 258.57 92.6879 259.847 93.1987C261.379 93.7095 262.912 94.2204 264.444 94.7312C266.488 95.3697 268.531 96.0082 270.446 96.7744C271.34 96.7744 271.979 97.5406 273 98.0515ZM283.217 111.205C283.089 111.205 282.961 111.205 282.834 111.205C282.834 112.227 282.706 113.248 282.834 114.142C283.217 116.824 283.217 119.506 282.195 122.187C281.174 124.997 280.663 128.062 278.492 130.36C277.981 130.871 277.726 131.765 277.726 132.531C277.47 135.213 279.386 137.384 281.684 137.384C283.728 137.384 285.515 138.023 287.048 139.555C287.686 140.194 288.963 140.704 289.602 140.449C291.39 139.938 293.305 139.3 294.455 137.64C294.582 137.512 294.455 137.256 294.327 136.618C293.433 137.001 292.667 137.256 291.901 137.512C290.496 138.023 289.219 138.533 287.942 137.384C286.409 135.852 284.494 135.213 282.323 135.213C280.152 135.213 278.875 133.042 280.024 131.127C281.684 128.317 282.195 124.997 283.217 121.932C284.366 118.612 283.983 115.419 283.6 112.099C283.728 111.843 283.344 111.588 283.217 111.205ZM323.699 93.9649C323.699 92.0494 323.571 91.4109 322.805 91.2832C320.506 90.7724 318.208 89.3676 315.781 90.6447C315.398 90.7724 314.759 90.7724 314.376 90.6447C313.099 90.3892 311.822 90.0061 310.162 89.4953C309.651 91.6663 306.842 91.0278 305.565 92.6879H305.437C304.799 92.4325 304.288 92.3048 303.394 91.9217C303.138 93.071 303.011 93.965 302.755 94.8589C302.5 96.0082 303.266 96.3913 304.16 96.7744C305.054 97.2852 305.693 96.7744 306.203 96.1359C306.586 95.6251 306.97 94.9866 307.48 94.7312C308.374 94.0927 309.268 93.7095 310.29 93.071C311.439 93.5818 311.439 93.5818 312.844 93.071C313.099 92.9433 313.227 92.8156 313.482 92.8156C316.037 92.8156 318.718 92.0494 321.272 93.071C321.911 93.4541 322.677 93.7095 323.699 93.9649ZM254.483 108.395C255.122 110.694 260.23 113.248 264.061 113.376C265.721 113.376 267.254 113.376 268.914 113.12C271.085 112.865 272.362 112.227 273 110.95C271.979 111.077 271.213 111.205 270.319 111.333C265.466 111.971 260.741 112.099 256.654 108.779C256.144 108.395 255.377 107.757 254.483 108.395ZM319.612 107.118C318.846 107.246 318.335 107.246 318.08 107.374C317.569 107.757 317.058 108.14 316.547 108.651C315.015 110.183 312.972 110.95 310.928 110.566C309.013 110.311 307.225 109.672 305.437 109.162C304.926 109.034 304.288 108.523 303.905 109.289C303.777 109.672 304.288 110.311 304.543 110.694C304.671 110.822 304.926 110.95 305.054 111.077C307.353 111.843 309.651 112.61 312.205 112.354C315.398 112.099 317.569 110.056 319.612 107.118Z" fill="#F8A383"/>
<path d="M242.096 117.335C240.947 116.952 239.925 116.696 239.159 116.185C236.094 114.142 234.817 111.588 235.583 108.651C236.477 105.203 235.711 102.01 233.923 98.9454C233.157 97.5407 232.135 96.1359 231.369 94.7312C230.347 92.9433 231.114 91.4109 232.518 90.0062C233.412 89.1122 234.817 89.1122 236.222 89.3676C237.627 89.6231 238.265 90.2616 238.265 91.2832C238.393 94.3481 238.265 97.2853 238.521 100.35C238.776 102.393 239.414 104.437 239.925 106.352C240.819 109.673 241.713 113.12 242.607 116.441C242.735 116.441 242.352 116.696 242.096 117.335Z" fill="#E27554"/>
<path d="M342.471 114.78C341.96 115.418 339.917 115.163 339.789 114.269C339.278 112.098 338.895 110.183 339.15 108.395C339.789 104.819 340.427 101.371 341.066 97.7953C341.321 96.2629 341.449 94.6028 341.704 92.9426C341.832 91.921 341.96 90.8994 342.343 90.0054C342.343 89.8777 342.598 89.4946 342.981 89.2392C344.003 87.9622 346.94 88.3453 347.707 89.8777C347.962 90.2608 348.09 90.644 348.09 90.7717C347.962 94.3474 347.323 97.7953 346.302 101.116C345.536 103.67 345.152 106.096 345.152 108.778C345.025 111.076 343.875 112.864 342.471 114.78Z" fill="#E27554"/>
<path d="M235.967 86.4303C235.839 85.6641 235.967 84.7701 235.711 84.1316C234.434 79.662 233.668 75.0647 233.413 70.3397C233.285 67.4025 232.902 64.4653 233.03 61.5281C233.157 57.8247 233.413 54.1213 234.307 50.5456C235.711 44.4159 237.499 38.4138 239.542 32.5394C241.458 26.9205 244.268 21.6846 248.482 17.4704C251.419 14.5333 254.228 11.5961 258.059 9.68052C260.869 8.40348 263.551 6.87104 266.36 5.59401C269.042 4.44468 271.851 3.29534 274.533 2.40142C278.875 0.868979 283.472 1.25209 287.942 1.5075C289.602 1.6352 291.135 1.6352 292.667 0.868983C293.05 0.613576 293.689 0.485872 294.2 0.613575C299.18 1.3798 304.288 1.89061 309.013 3.93386C312.461 5.3386 315.398 7.38186 318.336 9.55282C323.827 13.3839 328.296 18.3643 332.511 23.4725C336.597 28.4529 339.151 34.0719 340.811 40.2016C341.705 43.5219 343.11 46.5868 344.004 49.9071C345.409 54.7598 346.303 59.7403 346.43 64.7207C346.558 68.4241 346.558 72.2552 346.303 75.9586C346.047 78.6404 345.281 81.1945 344.77 83.7485C344.77 83.7485 341.194 103.032 340.428 115.036C340.3 115.802 339.917 116.568 339.917 117.335C339.917 122.57 338.513 127.551 336.725 132.404C335.959 134.702 336.98 136.745 334.426 139.3C334.426 139.3 333.405 136.235 336.086 128.062C336.469 126.785 336.853 125.508 336.98 124.231C337.619 120.399 338.257 116.568 338.64 112.609C338.768 111.205 338.64 109.672 338.513 108.14C338.13 104.82 337.491 101.627 337.108 98.3067C336.98 97.5405 337.236 96.902 337.236 96.1357C337.491 93.3263 337.619 90.3891 337.874 87.5796C338.13 83.6208 336.98 79.9174 336.086 76.214C335.831 74.937 335.065 73.7876 334.298 72.766C333.532 71.8721 332.894 71.1059 332.638 69.9565C332.383 68.8072 331.744 67.7856 330.595 67.5302C328.935 67.1471 328.169 65.9977 327.658 64.4653C327.53 63.9545 327.019 63.316 326.509 63.316C324.593 63.1883 323.699 61.9112 323.188 60.2511C323.061 59.7403 322.677 59.2294 322.55 59.2294C321.145 58.5909 320.251 58.3355 319.485 57.8247C318.974 57.4416 318.719 56.6754 318.463 56.1646C317.697 54.8875 316.803 53.9936 315.271 53.7382C314.632 53.6105 313.738 53.2274 313.355 52.7166C310.801 49.7794 307.992 46.9699 307.481 42.8834C307.225 40.9679 306.459 40.7125 304.671 41.6064C303.011 42.5003 301.096 42.2449 299.691 41.7341C298.414 41.351 297.648 41.6064 296.754 41.8618C295.604 41.2233 294.327 40.7125 293.178 40.457C290.879 40.0739 288.453 39.9462 286.154 39.9462C285.643 39.9462 285.133 40.3293 284.622 40.5847C284.111 40.8402 283.345 41.4787 282.962 41.351C281.557 40.8402 280.28 41.0956 278.875 41.351C276.96 41.7341 275.172 42.1172 273.639 43.6496C272.873 44.4159 271.724 44.799 270.702 45.0544C268.02 45.6929 265.339 46.2037 262.401 46.8422C262.529 47.8638 263.26 49.4891 263.516 50.383C263.771 51.2769 264.282 52.0431 264.921 53.1925C263.516 52.8094 262.494 52.4262 261.345 52.1708C259.812 51.7877 257.676 51.5672 257.038 52.972C256.399 54.1213 256.364 55.2357 255.087 55.108C254.449 55.108 253.427 55.2357 253.172 55.7465C251.767 57.7898 249.213 59.3222 250.107 62.5148C247.425 63.0256 247.17 63.281 247.042 65.8351C247.042 66.2182 247.042 66.6013 247.042 66.9844C247.17 67.8784 246.183 67.9133 245.417 68.5518C244.906 68.9349 244.523 69.7011 244.395 70.3397C244.012 72.3829 243.884 74.4262 242.097 75.9586C241.841 76.214 241.713 76.7248 241.586 77.1079C241.075 80.3005 240.692 83.3654 241.458 86.558C241.586 86.9411 241.713 87.4519 241.713 87.835C241.203 91.5384 241.841 95.2418 242.224 98.8175C242.352 100.222 242.48 101.627 242.097 103.032C241.458 105.33 243.246 117.335 241.969 119.633C237.244 122.187 235.967 86.4303 235.967 86.4303ZM246.822 136.618C247.46 138.15 248.226 139.555 249.12 140.96C251.547 144.791 253.718 148.622 256.655 152.07C256.655 152.07 256.399 153.347 255.633 154.752C255.25 155.518 254.867 156.029 254.739 156.667C254.228 160.498 253.59 164.202 253.462 168.033C253.462 168.033 253.59 170.587 253.845 171.098C253.845 171.098 249.631 169.821 248.993 169.438C246.438 168.033 244.906 165.862 243.757 163.052C242.48 159.86 241.33 156.795 241.458 153.475C241.713 149.133 241.841 144.791 243.757 140.704C244.395 137.639 246.822 136.618 246.822 136.618ZM316.675 161.775C317.952 160.498 319.102 159.094 320.251 157.689C323.188 153.858 326.125 150.154 328.807 146.195C329.446 145.302 329.957 144.408 330.467 143.514C330.467 143.514 331.744 145.046 332.511 146.962C334.682 150.793 338.13 153.347 340.556 156.923C342.855 160.115 345.409 163.052 347.835 166.117C348.729 167.267 349.623 168.416 349.751 169.948C349.878 171.225 349.878 171.225 348.729 172.502C348.984 173.013 349.367 173.524 349.623 174.163C351.538 177.738 353.326 181.186 355.242 184.762C356.136 186.55 357.157 188.338 357.924 190.125C358.818 191.786 358.945 193.446 357.541 195.106C357.285 195.361 357.157 196 357.285 196.511C357.668 199.192 358.307 201.746 358.69 204.301C358.945 205.578 359.456 206.344 360.733 206.727C360.733 206.727 364.053 208.898 360.35 209.536C360.095 209.409 359.711 209.409 359.073 209.281C359.073 210.813 359.201 212.09 359.073 213.368C358.945 215.155 358.818 216.943 358.434 218.603C358.179 220.008 357.157 220.136 356.263 219.114C356.008 218.859 355.753 218.476 355.242 217.582C354.859 220.008 354.476 221.924 354.348 223.967C354.093 228.82 351.922 232.906 348.984 236.61C348.474 237.248 347.835 237.631 346.941 237.631C346.303 237.631 345.536 238.014 345.026 238.525C342.727 240.951 339.407 241.462 336.597 242.739C336.214 242.867 335.32 242.484 334.937 242.101C334.682 241.845 334.937 241.079 335.065 240.568C335.192 240.185 335.32 239.802 335.575 239.164C334.937 239.547 334.682 239.547 334.426 239.802C332 241.59 329.701 243.506 327.275 245.293C326.764 245.676 326.253 246.06 325.742 246.187C325.231 246.315 324.465 246.315 324.21 246.06C323.954 245.804 323.954 244.91 324.21 244.527C325.998 241.335 327.786 238.27 329.573 235.077C329.701 234.694 329.829 234.311 330.084 233.545C328.807 234.055 327.913 234.439 327.147 234.694C326.125 235.077 325.104 235.716 324.082 235.971C323.571 236.099 322.805 235.716 322.422 235.332C322.167 235.077 322.422 234.183 322.805 233.8C325.487 229.586 327.658 225.244 329.19 220.519C329.318 220.136 329.19 219.753 329.19 219.242C329.573 218.348 329.829 218.22 329.829 218.22C329.957 217.071 330.978 216.177 330.084 215.028C329.573 215.411 329.063 215.794 328.552 216.177C327.53 216.815 326.764 216.305 326.764 215.283C326.764 214.517 327.019 213.878 327.147 213.112C328.296 208.387 329.063 203.662 329.318 198.682C329.573 194.467 328.169 191.147 325.487 188.21C321.017 183.357 318.336 177.738 317.825 171.225C317.697 169.438 317.186 167.65 316.803 165.351L316.675 161.775Z" fill="#252E55"/>
<path d="M198.676 287.691C198.676 287.435 198.549 287.18 198.549 286.797C198.676 286.797 198.804 286.797 198.932 286.669C199.06 286.925 199.06 287.18 199.187 287.563C198.804 287.563 198.804 287.691 198.676 287.691Z" fill="#252E55"/>
<path d="M45.3052 555.868C44.2836 556.379 43.3897 556.89 42.3681 557.145C41.7296 557.401 40.9633 557.017 40.9633 556.251C40.8356 555.357 41.4741 554.974 42.1127 555.102C43.1343 555.102 44.2836 554.336 45.3052 555.868Z" fill="#E27554"/>
<path d="M44.9222 559.444C44.5391 559.572 44.2837 559.7 43.9005 559.955C43.5174 560.21 43.1343 560.593 42.7512 560.849C41.8573 560.593 41.7296 560.083 42.1127 559.444C42.7512 558.55 43.6451 558.55 44.5391 558.806C44.5391 559.061 44.6668 559.316 44.9222 559.444Z" fill="#E27554"/>
<path d="M540.411 575.407C539.9 576.428 539.134 576.684 538.368 576.428C537.474 576.045 536.58 575.534 535.813 574.896C535.303 574.257 536.069 573.363 536.963 573.363C538.495 573.491 539.517 574.257 540.411 575.407Z" fill="#E27554"/>
<path d="M550.5 583.58C549.223 582.942 547.563 583.069 546.924 581.409C547.308 580.515 547.818 580.26 548.712 580.771C549.223 581.026 549.606 581.154 550.117 581.409C551.394 581.92 551.394 582.175 550.5 583.58Z" fill="#E27554"/>
<path d="M291.645 152.197C292.922 150.793 294.199 151.431 295.604 151.942C296.753 152.325 298.541 151.559 298.541 153.73C300.584 153.602 302.372 153.474 304.288 153.219C304.16 154.496 303.394 154.496 302.755 154.751C301.351 155.007 299.818 155.262 298.541 155.773C296.115 156.667 293.688 157.05 291.134 156.667C286.409 155.901 281.684 155.262 277.215 153.73C276.831 153.602 276.576 153.219 276.193 153.091C276.448 152.836 276.448 152.708 276.576 152.708C279.258 152.453 281.94 152.07 284.621 151.814C285.388 151.686 286.282 151.686 286.92 151.303C288.325 150.409 289.602 150.665 290.751 151.686C290.751 151.686 291.007 151.814 291.645 152.197Z" fill="#252E55"/>
<path d="M273 98.0514C272.107 97.4129 271.34 96.7744 270.446 96.519C268.531 95.7528 266.488 95.242 264.444 94.4757C262.912 93.9649 261.379 93.4541 259.847 92.9433C258.442 92.4325 257.165 91.794 255.633 92.1771C255.122 92.3048 254.356 91.9217 253.717 91.6663C252.568 92.4325 251.291 93.1987 249.758 92.9433C249.248 91.9217 249.631 91.4109 250.142 90.7723C250.908 90.0061 251.546 89.2399 252.44 88.7291C252.823 88.4737 253.59 88.2183 254.1 88.346C257.165 88.8568 260.358 89.3676 263.423 90.0061C265.083 90.3892 266.743 91.2832 268.275 92.0494C269.68 92.6879 270.957 93.5818 272.234 94.348C273.767 95.4974 273.894 96.1359 273 98.0514Z" fill="#252E55"/>
<path d="M283.216 111.205C283.344 111.588 283.727 111.971 283.727 112.226C283.983 115.547 284.366 118.739 283.344 122.059C282.323 125.124 281.812 128.317 280.152 131.254C279.13 133.17 280.407 135.341 282.45 135.341C284.621 135.341 286.409 136.107 288.069 137.511C289.346 138.661 290.623 138.15 292.028 137.639C292.794 137.384 293.56 137.128 294.454 136.745C294.454 137.256 294.582 137.639 294.582 137.767C293.433 139.427 291.517 140.066 289.729 140.576C288.963 140.832 287.686 140.321 287.175 139.682C285.643 138.15 283.855 137.511 281.812 137.511C279.385 137.511 277.598 135.213 277.853 132.659C277.981 131.893 278.108 130.999 278.619 130.488C280.79 128.189 281.301 125.124 282.323 122.315C283.344 119.633 283.344 117.079 282.961 114.269C282.833 113.248 282.961 112.226 282.961 111.332C282.961 111.205 283.089 111.205 283.216 111.205Z" fill="#252E55"/>
<path d="M323.698 93.965C322.676 93.5819 321.782 93.4542 321.016 93.0711C318.462 91.9217 315.908 92.8156 313.226 92.8156C312.971 92.8156 312.843 92.9433 312.588 93.0711C311.183 93.7096 311.183 93.7096 310.034 93.0711C309.012 93.7096 307.99 94.0927 307.224 94.7312C306.713 95.1143 306.33 95.6251 305.947 96.1359C305.436 96.9022 304.798 97.2853 303.904 96.7745C303.01 96.3913 302.371 95.8805 302.499 94.8589C302.627 93.965 302.882 93.0711 303.138 91.9217C304.032 92.1771 304.542 92.4325 305.181 92.6879H305.309C306.586 91.0278 309.395 91.6663 309.906 89.4954C311.566 89.8785 312.843 90.2616 314.12 90.6447C314.631 90.7724 315.142 90.7724 315.525 90.6447C318.079 89.4954 320.25 90.9001 322.549 91.2832C323.57 91.5386 323.698 92.1771 323.698 93.965Z" fill="#252E55"/>
<path d="M254.483 108.395C255.377 107.757 256.143 108.395 256.654 108.906C260.741 112.226 265.466 112.099 270.318 111.46C271.212 111.332 271.979 111.205 273 111.077C272.489 112.226 271.085 112.993 268.914 113.248C267.254 113.376 265.721 113.503 264.061 113.503C260.23 113.248 255.122 110.566 254.483 108.395Z" fill="#252E55"/>
<path d="M319.612 107.118C317.569 110.056 315.526 112.099 312.078 112.482C309.524 112.737 307.225 111.971 304.926 111.205C304.671 111.077 304.543 110.95 304.416 110.822C304.16 110.311 303.649 109.8 303.777 109.417C304.033 108.651 304.671 109.162 305.31 109.289C307.097 109.8 309.013 110.439 310.801 110.694C312.972 111.077 314.887 110.311 316.42 108.779C316.931 108.268 317.441 107.885 317.952 107.502C318.335 107.246 318.718 107.246 319.612 107.118Z" fill="#252E55"/>
<defs>
<linearGradient id="paint0_linear" x1="15.3574" y1="34.9344" x2="556.517" y2="576.094" gradientUnits="userSpaceOnUse">
<stop stop-color="#4BCCC4"/>
<stop offset="0.0833333" stop-color="#4BCAC6"/>
<stop offset="0.335703" stop-color="#4CC6CB"/>
<stop offset="1" stop-color="#4EB9DA"/>
</linearGradient>
<linearGradient id="paint1_linear" x1="67.2793" y1="86.8565" x2="504.595" y2="524.172" gradientUnits="userSpaceOnUse">
<stop stop-color="#4BCCC4"/>
<stop offset="0.0833333" stop-color="#4BCAC6"/>
<stop offset="0.335703" stop-color="#4CC6CB"/>
<stop offset="1" stop-color="#4EB9DA"/>
</linearGradient>
</defs>
</svg>
